<svg width="347" height="150" viewBox="0 0 347 150" fill="none" xmlns="http://www.w3.org/2000/svg">
<path d="M7.94415 2.99575C7.38952 0.857369 5.2064 -0.426515 3.06802 0.128116C0.929635 0.682747 -0.354249 2.86587 0.200381 5.00425L7.94415 2.99575ZM137.151 136.438L138.342 132.62L137.151 136.438ZM345.952 102.3C346.334 100.124 344.879 98.0504 342.703 97.6688L307.245 91.4491C305.069 91.0674 302.995 92.522 302.614 94.6979C302.232 96.8738 303.687 98.9471 305.863 99.3288L337.381 104.857L331.853 136.376C331.471 138.552 332.926 140.625 335.102 141.007C337.277 141.389 339.351 139.934 339.732 137.758L345.952 102.3ZM4.07227 4C0.200381 5.00425 0.200939 5.0064 0.201596 5.00892C0.201946 5.01026 0.202703 5.01317 0.203405 5.01586C0.204811 5.02123 0.206615 5.02812 0.208821 5.0365C0.213234 5.05326 0.219254 5.076 0.226911 5.10464C0.242223 5.16194 0.264078 5.24285 0.292692 5.34676C0.349918 5.55456 0.434186 5.85437 0.547226 6.24113C0.773293 7.01462 1.11452 8.13621 1.58475 9.56558C2.52508 12.4239 3.98218 16.5156 6.06718 21.5177C10.2355 31.5176 16.924 45.1814 27.0292 59.9094C47.2506 89.3816 81.1967 123.165 135.959 140.256L138.342 132.62C85.6807 116.184 53.0876 83.7484 33.6258 55.3834C23.8893 41.1927 17.4503 28.0334 13.4514 18.4397C11.4528 13.645 10.0664 9.7474 9.18408 7.06555C8.74302 5.72484 8.42817 4.68864 8.22598 3.99687C8.1249 3.65101 8.052 3.39131 8.00558 3.22277C7.98238 3.13851 7.9658 3.07704 7.95563 3.03899C7.95054 3.01997 7.94706 3.0068 7.94516 2.99957C7.94421 2.99595 7.94365 2.99382 7.94348 2.99318C7.9434 2.99286 7.94357 2.9935 7.94352 2.99334C7.94379 2.99436 7.94415 2.99575 4.07227 4ZM135.959 140.256C190.758 157.359 242.893 148.443 281.158 135.382C300.308 128.845 316.053 121.248 327.021 115.279C332.507 112.293 336.805 109.712 339.742 107.868C341.211 106.947 342.34 106.209 343.108 105.698C343.492 105.442 343.786 105.243 343.987 105.106C344.088 105.037 344.165 104.983 344.219 104.946C344.246 104.927 344.267 104.913 344.282 104.902C344.29 104.897 344.296 104.893 344.3 104.89C344.303 104.888 344.305 104.886 344.306 104.886C344.308 104.884 344.309 104.883 342.012 101.609C339.715 98.3341 339.716 98.3335 339.716 98.3332C339.716 98.3334 339.716 98.3333 339.715 98.3338C339.714 98.3348 339.711 98.3368 339.707 98.3398C339.698 98.3458 339.684 98.3559 339.663 98.3699C339.623 98.3981 339.559 98.4423 339.472 98.5019C339.297 98.621 339.031 98.8015 338.675 99.0383C337.964 99.5119 336.895 100.21 335.489 101.092C332.678 102.856 328.524 105.353 323.197 108.252C312.538 114.052 297.21 121.449 278.573 127.81C241.263 140.546 190.967 149.044 138.342 132.62L135.959 140.256Z" fill="#E97F20"/>
</svg>
