<svg width="306" height="192" viewBox="0 0 306 192" fill="none" xmlns="http://www.w3.org/2000/svg">
<path d="M298.874 52.1246C300.574 53.5356 303.095 53.3016 304.506 51.6018C305.917 49.9021 305.683 47.3803 303.984 45.9692L298.874 52.1246ZM125.078 17.8666L126.784 21.4842L125.078 17.8666ZM25.8043 190.215C27.2687 191.869 29.7967 192.023 31.4507 190.558L58.4049 166.695C60.0589 165.23 60.2126 162.702 58.7482 161.048C57.2838 159.394 54.7558 159.241 53.1018 160.705L29.1426 181.917L7.93044 157.958C6.46604 156.304 3.93804 156.15 2.284 157.614C0.629965 159.079 0.476241 161.607 1.94062 163.261L25.8043 190.215ZM301.429 49.0469C303.984 45.9692 303.982 45.9679 303.98 45.9664C303.979 45.9655 303.977 45.9637 303.975 45.962C303.971 45.9585 303.965 45.9538 303.958 45.9481C303.944 45.9367 303.925 45.9209 303.901 45.9008C303.852 45.8607 303.782 45.8034 303.69 45.7297C303.508 45.5822 303.243 45.3691 302.896 45.096C302.203 44.5499 301.186 43.7637 299.866 42.7835C297.227 40.8235 293.376 38.0856 288.482 34.9391C278.702 28.6508 264.72 20.704 247.906 14.0782C214.322 0.844022 168.996 -7.27653 123.371 14.249L126.784 21.4842C169.656 1.25764 212.506 8.72724 244.973 21.5212C261.185 27.9095 274.697 35.5863 284.155 41.6681C288.881 44.7065 292.584 47.3403 295.096 49.2057C296.351 50.1383 297.308 50.8782 297.945 51.38C298.263 51.6309 298.502 51.8222 298.658 51.9482C298.735 52.0112 298.793 52.0579 298.829 52.0875C298.847 52.1023 298.86 52.1129 298.867 52.1191C298.871 52.1222 298.873 52.1242 298.874 52.1251C298.875 52.1256 298.875 52.1254 298.875 52.1257C298.875 52.1253 298.874 52.1246 301.429 49.0469ZM123.371 14.249C77.7015 35.7953 53.1293 79.4296 39.976 117.052C33.3785 135.923 29.5916 153.452 27.4524 166.261C26.382 172.67 25.7223 177.908 25.3294 181.556C25.1329 183.38 25.003 184.808 24.9219 185.786C24.8813 186.275 24.8529 186.652 24.8344 186.91C24.8252 187.039 24.8184 187.138 24.8139 187.207C24.8116 187.241 24.8099 187.268 24.8087 187.287C24.8081 187.296 24.8076 187.304 24.8072 187.31C24.8071 187.312 24.8069 187.315 24.8068 187.317C24.8067 187.319 24.8066 187.321 28.7992 187.563C32.7918 187.806 32.7917 187.807 32.7917 187.807C32.7918 187.807 32.7918 187.807 32.7918 187.806C32.792 187.804 32.7922 187.799 32.7926 187.793C32.7934 187.781 32.7946 187.762 32.7964 187.735C32.8001 187.68 32.8058 187.595 32.814 187.481C32.8304 187.252 32.8565 186.905 32.8945 186.447C32.9705 185.531 33.0942 184.168 33.2834 182.413C33.6617 178.901 34.3012 173.817 35.3431 167.579C37.4283 155.093 41.1178 138.027 47.5278 119.692C60.3893 82.9041 83.9563 41.6899 126.784 21.4842L123.371 14.249Z" fill="#E97F20"/>
</svg>
