<svg width="331" height="158" viewBox="0 0 331 158" fill="none" xmlns="http://www.w3.org/2000/svg">
<path d="M8.42358 3.26231C8.01616 1.09107 5.92575 -0.338802 3.7545 0.0686114C1.58325 0.476025 0.153385 2.56644 0.560799 4.73769L8.42358 3.26231ZM125.736 142.303L124.374 146.064L125.736 142.303ZM330.51 113.176C330.926 111.007 329.504 108.911 327.334 108.495L291.978 101.718C289.808 101.302 287.712 102.724 287.296 104.893C286.881 107.063 288.302 109.159 290.472 109.575L321.9 115.599L315.876 147.027C315.46 149.196 316.882 151.292 319.051 151.708C321.221 152.124 323.317 150.702 323.733 148.533L330.51 113.176ZM4.49219 4C0.560799 4.73769 0.5612 4.73982 0.561674 4.74234C0.56193 4.74369 0.562479 4.7466 0.562992 4.74931C0.564019 4.75473 0.565343 4.76169 0.566969 4.77019C0.570219 4.78718 0.574674 4.81029 0.580364 4.83946C0.591745 4.8978 0.608067 4.98034 0.629578 5.08644C0.672598 5.29866 0.736381 5.60518 0.822902 6.00094C0.995934 6.79241 1.25998 7.9411 1.63088 9.40638C2.37256 12.3365 3.54228 16.5355 5.26716 21.6778C8.71523 31.9573 14.3919 46.0365 23.3233 61.2945C41.1933 91.823 72.1574 127.163 124.374 146.064L127.097 138.542C77.0778 120.436 47.42 86.6243 30.2274 57.2531C21.6274 42.5612 16.1625 29.0035 12.8518 19.1336C11.1974 14.2012 10.0834 10.1974 9.38628 7.44328C9.03778 6.06647 8.79363 5.00275 8.63831 4.29233C8.56066 3.93714 8.50523 3.67035 8.47009 3.49698C8.45251 3.4103 8.44001 3.34698 8.43234 3.30766C8.42851 3.288 8.42588 3.27433 8.42443 3.26675C8.4237 3.26296 8.42327 3.26069 8.42313 3.25994C8.42306 3.25957 8.42317 3.26016 8.42314 3.25998C8.42332 3.26095 8.42358 3.26231 4.49219 4ZM124.374 146.064C176.628 164.979 227.816 157.298 265.727 145.047C284.705 138.915 300.438 131.612 311.436 125.838C316.937 122.95 321.26 120.44 324.219 118.645C325.699 117.748 326.838 117.028 327.614 116.529C328.001 116.28 328.298 116.085 328.501 115.951C328.603 115.884 328.681 115.832 328.735 115.795C328.763 115.777 328.784 115.763 328.799 115.752C328.807 115.747 328.813 115.743 328.817 115.74C328.82 115.738 328.822 115.737 328.823 115.736C328.825 115.735 328.827 115.734 326.581 112.423C324.336 109.113 324.337 109.113 324.337 109.112C324.337 109.113 324.337 109.112 324.336 109.113C324.335 109.114 324.332 109.116 324.327 109.119C324.319 109.125 324.304 109.135 324.283 109.148C324.242 109.176 324.177 109.219 324.089 109.278C323.913 109.394 323.644 109.571 323.284 109.802C322.565 110.265 321.486 110.946 320.07 111.805C317.237 113.524 313.058 115.951 307.717 118.755C297.03 124.366 281.721 131.472 263.267 137.435C226.315 149.376 177.08 156.635 127.097 138.542L124.374 146.064Z" fill="#E97F20"/>
</svg>
