<svg width="188" height="276" viewBox="0 0 188 276" fill="none" xmlns="http://www.w3.org/2000/svg">
<path d="M132.24 7.41899C130.791 5.75165 130.967 3.22517 132.635 1.77593C134.302 0.326704 136.829 0.503517 138.278 2.17086L132.24 7.41899ZM172.116 170.671L168.54 168.88L172.116 170.671ZM1.54129 248.019C0.0252266 246.412 0.0988022 243.88 1.70562 242.364L27.8902 217.659C29.4971 216.142 32.0287 216.216 33.5447 217.823C35.0608 219.43 34.9872 221.961 33.3804 223.477L10.1052 245.438L32.0657 268.713C33.5817 270.32 33.5082 272.851 31.9013 274.368C30.2945 275.884 27.7629 275.81 26.2469 274.203L1.54129 248.019ZM135.259 4.79492C138.278 2.17086 138.279 2.17222 138.28 2.17392C138.281 2.17493 138.283 2.17697 138.285 2.17899C138.288 2.18304 138.293 2.18843 138.299 2.19514C138.31 2.20857 138.327 2.22732 138.347 2.25134C138.389 2.29938 138.448 2.36852 138.524 2.45838C138.677 2.6381 138.898 2.90076 139.182 3.24339C139.751 3.9286 140.571 4.93398 141.595 6.23587C143.644 8.8391 146.512 12.6311 149.825 17.4223C156.444 26.9961 164.867 40.6051 172.053 56.7287C186.375 88.8628 196.094 131.726 175.693 172.462L168.54 168.88C187.37 131.28 178.66 91.2053 164.746 59.9854C157.814 44.432 149.666 31.2599 143.244 21.9719C140.037 17.3322 137.268 13.6731 135.308 11.183C134.329 9.93818 133.552 8.98631 133.025 8.35094C132.762 8.03328 132.56 7.79482 132.428 7.63849C132.361 7.56033 132.312 7.50271 132.28 7.466C132.265 7.44765 132.253 7.43452 132.246 7.42667C132.243 7.42274 132.241 7.42014 132.24 7.41885C132.239 7.41821 132.239 7.41825 132.239 7.41792C132.239 7.41829 132.24 7.41899 135.259 4.79492ZM175.693 172.462C155.264 213.252 111.856 232.298 74.5028 241.238C55.7238 245.733 38.2138 247.739 25.4072 248.623C18.9987 249.066 13.7549 249.229 10.1027 249.281C8.27633 249.306 6.847 249.305 5.86807 249.296C5.37857 249.292 5.0016 249.286 4.74381 249.281C4.61492 249.279 4.5158 249.276 4.4473 249.275C4.41305 249.274 4.38646 249.273 4.36762 249.273C4.3582 249.272 4.35073 249.272 4.3452 249.272C4.34244 249.272 4.33976 249.272 4.33837 249.272C4.33619 249.272 4.33449 249.272 4.45069 245.274C4.56689 241.275 4.56618 241.275 4.56594 241.275C4.56653 241.275 4.56677 241.275 4.56791 241.275C4.5702 241.275 4.57443 241.275 4.58059 241.276C4.5929 241.276 4.61293 241.276 4.64055 241.277C4.69582 241.278 4.78152 241.28 4.89683 241.283C5.12745 241.287 5.47646 241.292 5.93722 241.296C6.85881 241.304 8.22713 241.306 9.98921 241.281C13.514 241.231 18.6106 241.074 24.8559 240.642C37.3566 239.779 54.4071 237.822 72.6406 233.458C109.312 224.681 149.737 206.425 168.54 168.88L175.693 172.462Z" fill="#E97F20"/>
</svg>
