<svg width="16" height="16" viewBox="0 0 16 16" fill="none" xmlns="http://www.w3.org/2000/svg">
    <g clip-path="url(#clip0)">
        <path d="M9.19819 12.6133H1.20142C0.538194 12.6133 0 13.1514 0 13.8147V15.9994H10.3996V13.8147C10.3996 13.1514 9.86141 12.6133 9.19819 12.6133Z"
              fill="#B5B5B5"/>
        <path d="M15.7847 12.7814L8.48504 5.48162L9.89498 4.07419C10.1275 4.2792 10.485 4.26917 10.7049 4.0492C10.9349 3.81672 10.9349 3.44421 10.7049 3.21173L7.66509 0.174358C7.43508 -0.0581193 7.0601 -0.0581193 6.83013 0.174358C6.59765 0.404361 6.59765 0.779346 6.83013 1.00932L6.80513 0.984318L2.94526 4.84164L2.97026 4.86912C2.74025 4.63664 2.36527 4.63664 2.1353 4.86912C1.90282 5.09912 1.90282 5.4741 2.1353 5.70411L5.17267 8.74395C5.40515 8.97396 5.78014 8.97396 6.01014 8.74395C6.24014 8.51148 6.24014 8.139 6.01014 7.90655L6.03514 7.93149L7.44507 6.52406L14.7423 13.8213C15.0298 14.1088 15.4973 14.1088 15.7847 13.8213C16.0722 13.5338 16.0722 13.0688 15.7847 12.7814Z"
              fill="#B5B5B5"/>
    </g>
    <defs>
        <clipPath id="clip0">
            <rect width="16" height="16" fill="white"/>
        </clipPath>
    </defs>
</svg>
