<svg width="12" height="12" viewBox="0 0 12 12" fill="none" xmlns="http://www.w3.org/2000/svg">
    <path d="M6 0C2.68352 0 0 2.68376 0 6C0 9.31648 2.68376 12 6 12C9.31648 12 12 9.31624 12 6C12 2.68352 9.31622 0 6 0ZM6 11.0625C3.20173 11.0625 0.9375 8.79809 0.9375 6C0.9375 3.20173 3.20191 0.9375 6 0.9375C8.79827 0.9375 11.0625 3.20191 11.0625 6C11.0625 8.79827 8.79806 11.0625 6 11.0625Z"
          fill="#B5B5B5"/>
    <path d="M5.79449 3.78911C5.59449 3.78911 5.40306 3.81482 5.22021 3.86625C5.03735 3.91196 4.84592 3.98911 4.64592 4.09768L4.35449 3.30054C4.56592 3.18054 4.80592 3.08625 5.07449 3.01768C5.34878 2.94339 5.62878 2.90625 5.91449 2.90625C6.25735 2.90625 6.54021 2.95482 6.76306 3.05196C6.98592 3.14339 7.16306 3.26054 7.29449 3.40339C7.42592 3.54625 7.51735 3.70339 7.56878 3.87482C7.6202 4.04625 7.64592 4.21196 7.64592 4.37196C7.64592 4.56625 7.60878 4.74054 7.53449 4.89482C7.46592 5.04911 7.37735 5.19197 7.26878 5.32339C7.16021 5.45482 7.04306 5.58054 6.91735 5.70054C6.79163 5.81482 6.67449 5.93482 6.56592 6.06054C6.45735 6.18054 6.36592 6.30911 6.29163 6.44625C6.22306 6.58339 6.18878 6.73768 6.18878 6.90911C6.18878 6.93768 6.18878 6.97197 6.18878 7.01197C6.18878 7.04625 6.19163 7.08054 6.19735 7.11482H5.30592C5.29449 7.05768 5.28592 6.99768 5.28021 6.93482C5.27449 6.86625 5.27163 6.80339 5.27163 6.74625C5.27163 6.55768 5.30306 6.38911 5.36592 6.24054C5.42878 6.09197 5.50878 5.95482 5.60592 5.82911C5.70306 5.70339 5.80592 5.58625 5.91449 5.47768C6.02878 5.36911 6.13449 5.26054 6.23163 5.15197C6.32878 5.04339 6.40878 4.93197 6.47163 4.81768C6.53449 4.70339 6.56592 4.57768 6.56592 4.44054C6.56592 4.25196 6.50021 4.09768 6.36878 3.97768C6.24306 3.85196 6.05163 3.78911 5.79449 3.78911ZM6.46306 8.41768C6.46306 8.61768 6.39735 8.78054 6.26592 8.90625C6.13449 9.03197 5.97163 9.09482 5.77735 9.09482C5.58878 9.09482 5.42592 9.03197 5.28878 8.90625C5.15735 8.78054 5.09163 8.61768 5.09163 8.41768C5.09163 8.21768 5.15735 8.05482 5.28878 7.92911C5.42592 7.79768 5.58878 7.73197 5.77735 7.73197C5.97163 7.73197 6.13449 7.79768 6.26592 7.92911C6.39735 8.05482 6.46306 8.21768 6.46306 8.41768Z"
          fill="#B5B5B5"/>
</svg>
