<svg width="306" height="108" viewBox="0 0 306 108" fill="none" xmlns="http://www.w3.org/2000/svg">
<path d="M301.99 28.4362C303.131 29.2144 304.686 28.9207 305.464 27.7802C306.243 26.6397 305.949 25.0843 304.809 24.306L301.99 28.4362ZM150.77 10.9057L151.373 13.3321L150.77 10.9057ZM4.14077 105.1C4.38329 106.459 5.68176 107.364 7.04102 107.122L29.1912 103.17C30.5505 102.927 31.4557 101.629 31.2132 100.27C30.9707 98.9103 29.6722 98.005 28.313 98.2475L8.62393 101.76L5.111 82.0714C4.86848 80.7121 3.57001 79.8068 2.21075 80.0493C0.851517 80.2919 -0.0537794 81.5903 0.188744 82.9496L4.14077 105.1ZM303.399 26.3711C304.809 24.306 304.807 24.3052 304.806 24.3041C304.805 24.3036 304.803 24.3024 304.802 24.3013C304.798 24.2992 304.794 24.2964 304.789 24.2931C304.78 24.2864 304.766 24.2774 304.749 24.2661C304.716 24.2435 304.668 24.2118 304.606 24.1712C304.483 24.0901 304.304 23.9739 304.07 23.8256C303.602 23.5292 302.914 23.1047 302.01 22.5771C300.202 21.5221 297.531 20.0545 294.035 18.3747C287.043 15.0152 276.747 10.8048 263.45 7.34797C236.844 0.43098 198.262 -3.45913 150.168 8.47933L151.373 13.3321C198.575 1.61489 236.307 5.45748 262.192 12.1871C275.141 15.5535 285.134 19.645 291.869 22.8814C295.237 24.4996 297.79 25.9035 299.49 26.8955C300.34 27.3915 300.976 27.7844 301.394 28.0494C301.604 28.1819 301.758 28.2825 301.858 28.348C301.908 28.3807 301.944 28.4047 301.966 28.4195C301.977 28.4269 301.984 28.4321 301.988 28.4349C301.99 28.4362 301.992 28.4371 301.992 28.4373C301.992 28.4374 301.992 28.4371 301.992 28.4372C301.991 28.4367 301.99 28.4362 303.399 26.3711ZM150.168 8.47933C102.054 20.4229 65.6741 44.0866 41.3323 64.7481C29.159 75.0809 19.9847 84.6725 13.8454 91.6922C10.7753 95.2026 8.46282 98.0714 6.91254 100.07C6.13736 101.07 5.55262 101.852 5.15888 102.388C4.96203 102.656 4.81288 102.863 4.71156 103.005C4.66091 103.075 4.62222 103.13 4.59547 103.168C4.5821 103.187 4.5717 103.202 4.56431 103.212C4.56062 103.217 4.55766 103.222 4.55546 103.225C4.55436 103.226 4.55329 103.228 4.55274 103.229C4.55182 103.23 4.55111 103.231 6.6019 104.661C8.65269 106.09 8.65234 106.091 8.65218 106.091C8.65239 106.091 8.65241 106.091 8.6528 106.09C8.65358 106.089 8.65512 106.087 8.65739 106.084C8.6619 106.077 8.66944 106.067 8.67991 106.052C8.70087 106.022 8.73371 105.976 8.77845 105.913C8.86789 105.788 9.00481 105.598 9.18915 105.347C9.55786 104.845 10.1162 104.098 10.8635 103.135C12.3582 101.207 14.6084 98.4149 17.6091 94.9838C23.6114 88.1207 32.6111 78.709 44.5679 68.56C68.4864 48.2579 104.191 25.0441 151.373 13.3321L150.168 8.47933Z" fill="#E97F20"/>
</svg>
