<svg width="302" height="120" viewBox="0 0 302 120" fill="none" xmlns="http://www.w3.org/2000/svg">
<path d="M4.25781 22.3949C3.06457 23.0896 1.53413 22.6854 0.839462 21.4922C0.144795 20.2989 0.548962 18.7685 1.74219 18.0738L4.25781 22.3949ZM155.639 15.349L156.396 12.9663L155.639 15.349ZM295.846 117.656C295.527 118.999 294.179 119.83 292.836 119.511L270.944 114.316C269.6 113.998 268.77 112.65 269.088 111.307C269.407 109.963 270.755 109.133 272.098 109.452L291.558 114.069L296.175 94.609C296.494 93.2656 297.841 92.4349 299.185 92.7537C300.528 93.0724 301.359 94.4199 301.04 95.7633L295.846 117.656ZM3 20.2344C1.74219 18.0738 1.74354 18.0731 1.74511 18.0721C1.74593 18.0717 1.74773 18.0706 1.74938 18.0697C1.75269 18.0677 1.7569 18.0653 1.76201 18.0624C1.77225 18.0565 1.78611 18.0485 1.80357 18.0385C1.83851 18.0186 1.8879 17.9906 1.95163 17.9549C2.07911 17.8835 2.26399 17.7814 2.50551 17.6516C2.98854 17.3921 3.69819 17.0218 4.62828 16.5649C6.48838 15.6511 9.23077 14.3908 12.806 12.9778C19.956 10.152 30.4406 6.71437 43.8625 4.21855C70.7186 -0.775396 109.299 -1.99087 156.396 12.9663L154.883 17.7317C108.646 3.04812 70.9067 4.27535 44.7766 9.13428C31.7054 11.5649 21.5302 14.9062 14.6437 17.6278C11.2007 18.9885 8.58064 20.194 6.83288 21.0526C5.95904 21.4819 5.3034 21.8244 4.87213 22.0561C4.65649 22.172 4.49697 22.2601 4.39432 22.3176C4.34299 22.3463 4.30589 22.3674 4.28311 22.3804C4.27171 22.3869 4.2639 22.3914 4.25968 22.3938C4.25757 22.3951 4.25636 22.3958 4.25604 22.3959C4.25589 22.396 4.25633 22.3958 4.25625 22.3958C4.25692 22.3954 4.25781 22.3949 3 20.2344ZM156.396 12.9663C203.514 27.9297 238.276 53.6028 261.252 75.52C272.742 86.4807 281.295 96.5121 286.983 103.815C289.828 107.467 291.957 110.439 293.38 112.505C294.092 113.538 294.627 114.345 294.987 114.898C295.167 115.174 295.303 115.387 295.395 115.533C295.441 115.606 295.476 115.662 295.501 115.701C295.513 115.721 295.522 115.736 295.529 115.747C295.533 115.752 295.535 115.757 295.537 115.76C295.538 115.762 295.539 115.763 295.54 115.764C295.541 115.765 295.541 115.766 293.413 117.078C291.285 118.39 291.285 118.391 291.285 118.391C291.285 118.391 291.285 118.391 291.285 118.39C291.284 118.389 291.283 118.387 291.281 118.383C291.277 118.377 291.27 118.366 291.26 118.351C291.241 118.32 291.211 118.272 291.171 118.208C291.089 118.079 290.964 117.884 290.796 117.625C290.459 117.107 289.948 116.337 289.262 115.341C287.891 113.349 285.819 110.457 283.039 106.888C277.478 99.7477 269.087 89.9044 257.801 79.1379C235.223 57.6006 201.099 32.4089 154.883 17.7317L156.396 12.9663Z" fill="#E97F20"/>
</svg>
